<svg width="40" height="40" viewBox="0 0 40 40" fill="none" xmlns="http://www.w3.org/2000/svg">
<path fill-rule="evenodd" clip-rule="evenodd" d="M27.4667 23.3334H34.1667C35.2717 23.3334 36.3315 22.8944 37.113 22.113C37.8944 21.3316 38.3333 20.2718 38.3333 19.1667C38.3333 18.0616 37.8944 17.0018 37.113 16.2204C36.3315 15.439 35.2717 15 34.1667 15H11.03C10.7206 14.9999 10.4173 14.9136 10.1541 14.7508C9.89097 14.588 9.67832 14.3552 9.54001 14.0784L8.79334 12.5884C8.65502 12.3116 8.44237 12.0787 8.17922 11.916C7.91606 11.7532 7.61278 11.6669 7.30334 11.6667H4.19501C3.91906 11.6665 3.64738 11.7347 3.40433 11.8654C3.16129 11.9961 2.95448 12.185 2.80249 12.4153C2.65049 12.6456 2.55806 12.9101 2.53348 13.1849C2.5089 13.4598 2.55295 13.7364 2.66167 13.99L6.23334 22.3234C6.36194 22.6234 6.5758 22.879 6.84838 23.0586C7.12097 23.2381 7.44027 23.3337 7.76667 23.3334H14.205C14.4772 23.3335 14.7453 23.4004 14.9857 23.5281C15.2261 23.6558 15.4316 23.8404 15.5842 24.0658C15.7368 24.2912 15.8318 24.5506 15.861 24.8213C15.8902 25.0919 15.8527 25.3656 15.7517 25.6184L14.25 29.3834C14.1494 29.6359 14.1121 29.9093 14.1414 30.1796C14.1707 30.4499 14.2657 30.7089 14.418 30.9341C14.5704 31.1592 14.7755 31.3437 15.0155 31.4714C15.2555 31.5991 15.5231 31.6662 15.795 31.6667H19.1983C19.4483 31.6668 19.6951 31.6107 19.9204 31.5025C20.1457 31.3943 20.3438 31.2368 20.5 31.0417L26.1667 23.9584C26.3227 23.7635 26.5205 23.6061 26.7456 23.498C26.9706 23.3898 27.217 23.3335 27.4667 23.3334ZM15.8333 13.3334H23.75L20.5 9.00004C20.3448 8.79305 20.1435 8.62504 19.912 8.50933C19.6806 8.39362 19.4254 8.33337 19.1667 8.33337H16.03C15.746 8.33353 15.4668 8.40624 15.2188 8.54461C14.9708 8.68299 14.7623 8.88244 14.613 9.12403C14.4637 9.36563 14.3787 9.64135 14.3659 9.92505C14.3531 10.2087 14.4131 10.491 14.54 10.745L15.8333 13.3334Z" fill="black"/>
</svg>
