<svg width="40" height="40" viewBox="0 0 40 40" fill="none" xmlns="http://www.w3.org/2000/svg">
<path d="M24.5833 27.5H27.0833V25H28.3333C28.8055 25 29.2016 24.84 29.5216 24.52C29.8416 24.2 30.001 23.8044 29.9999 23.3333V16.6666C29.9999 16.1944 29.8399 15.7988 29.5199 15.48C29.1999 15.1611 28.8044 15.0011 28.3333 15H23.3333C22.861 15 22.4655 15.16 22.1466 15.48C21.8277 15.8 21.6677 16.1955 21.6666 16.6666V23.3333C21.6666 23.8055 21.8266 24.2016 22.1466 24.5216C22.4666 24.8416 22.8621 25.0011 23.3333 25H24.5833V27.5ZM9.99992 25H12.4999V21.6666H15.8333V25H18.3333V15H15.8333V19.1666H12.4999V15H9.99992V25ZM24.1666 22.5V17.5H27.4999V22.5H24.1666ZM6.66659 33.3333C5.74992 33.3333 4.96547 33.0072 4.31325 32.355C3.66103 31.7027 3.33436 30.9177 3.33325 30V9.99996C3.33325 9.08329 3.65992 8.29885 4.31325 7.64663C4.96659 6.9944 5.75103 6.66774 6.66659 6.66663H33.3333C34.2499 6.66663 35.0349 6.99329 35.6883 7.64663C36.3416 8.29996 36.6677 9.0844 36.6666 9.99996V30C36.6666 30.9166 36.3405 31.7016 35.6883 32.355C35.036 33.0083 34.251 33.3344 33.3333 33.3333H6.66659Z" fill="black"/>
</svg>
