<svg width="40" height="40" viewBox="0 0 40 40" fill="none" xmlns="http://www.w3.org/2000/svg">
<path d="M31.6666 14.9999C31.6673 12.9914 31.1495 11.0168 30.1633 9.26708C29.1771 7.51738 27.7559 6.05192 26.0372 5.01256C24.3186 3.97319 22.3607 3.39513 20.3531 3.33433C18.3455 3.27352 16.3563 3.73204 14.5779 4.66548C12.7994 5.59893 11.2921 6.97569 10.2018 8.6625C9.11155 10.3493 8.47519 12.289 8.35438 14.2939C8.23357 16.2987 8.63238 18.3008 9.51223 20.1064C10.3921 21.9119 11.7231 23.4597 13.3766 24.5999L8.33325 33.3333L12.0933 33.4883L14.1066 36.6666L19.8833 26.6599L19.9999 26.6666C20.0583 26.6699 20.0766 26.6616 20.1166 26.6599L25.8933 36.6666L27.9466 33.5566L31.6666 33.3333L26.6233 24.5999C28.1793 23.5286 29.4514 22.0949 30.33 20.4225C31.2086 18.7501 31.6673 16.8891 31.6666 14.9999ZM11.6666 14.9999C11.6666 13.3518 12.1553 11.7406 13.071 10.3702C13.9867 8.99978 15.2882 7.93168 16.8109 7.30095C18.3336 6.67022 20.0092 6.50519 21.6257 6.82674C23.2422 7.14828 24.727 7.94195 25.8925 9.10739C27.0579 10.2728 27.8516 11.7577 28.1731 13.3742C28.4947 14.9907 28.3296 16.6663 27.6989 18.189C27.0682 19.7117 26.0001 21.0132 24.6297 21.9289C23.2593 22.8445 21.6481 23.3333 19.9999 23.3333C17.7898 23.3333 15.6702 22.4553 14.1074 20.8925C12.5446 19.3297 11.6666 17.2101 11.6666 14.9999Z" fill="black"/>
<path d="M20 20C22.7614 20 25 17.7614 25 15C25 12.2386 22.7614 10 20 10C17.2386 10 15 12.2386 15 15C15 17.7614 17.2386 20 20 20Z" fill="black"/>
</svg>
