<svg width="36" height="40" viewBox="0 0 36 40" fill="none" xmlns="http://www.w3.org/2000/svg">
<path d="M26.1731 14.4028C28.7494 16.2435 31.9055 17.3266 35.3142 17.3266V10.7707C34.6691 10.771 34.0256 10.7036 33.3945 10.5699V15.7303C29.9861 15.7303 26.8304 14.6474 24.2535 12.8068V26.1856C24.2535 32.8784 18.8251 38.3035 12.1294 38.3035C9.63105 38.3035 7.30885 37.5486 5.37988 36.2539C7.58154 38.5039 10.6519 39.8997 14.0486 39.8997C20.7448 39.8997 26.1734 34.4746 26.1734 27.7815V14.4028H26.1731ZM28.5414 7.78878C27.2247 6.35112 26.3602 4.49319 26.1731 2.43912V1.59595H24.354C24.8119 4.20657 26.374 6.43691 28.5414 7.78878ZM9.61492 31.1182C8.87924 30.1543 8.4816 28.9749 8.48347 27.7623C8.48347 24.7013 10.9664 22.2194 14.0297 22.2194C14.6005 22.2191 15.1679 22.3067 15.712 22.4791V15.7766C15.0762 15.6896 14.4345 15.6525 13.7931 15.6662V20.883C13.2487 20.7105 12.681 20.623 12.11 20.6234C9.04678 20.6234 6.56402 23.1051 6.56402 26.1664C6.56402 28.3311 7.80499 30.2052 9.61492 31.1182Z" fill="#FF004F"/>
<path d="M24.2534 12.8067C26.8304 14.6473 29.9858 15.7302 33.3944 15.7302V10.5697C31.4918 10.1646 29.8075 9.17098 28.5411 7.78878C26.3736 6.43678 24.8118 4.20643 24.3538 1.59595H19.5755V27.7812C19.5646 30.8339 17.086 33.3056 14.0293 33.3056C12.2282 33.3056 10.6279 32.4475 9.61452 31.118C7.80487 30.2052 6.56376 28.331 6.56376 26.1666C6.56376 23.1055 9.04652 20.6235 12.1097 20.6235C12.6966 20.6235 13.2622 20.7148 13.7929 20.8831V15.6663C7.21466 15.8022 1.92432 21.1743 1.92432 27.7813C1.92432 31.0795 3.2417 34.0695 5.3799 36.2542C7.30887 37.5486 9.63094 38.3038 12.1294 38.3038C18.8253 38.3038 24.2536 32.8783 24.2536 26.1856L24.2534 12.8067Z" fill="black"/>
<path d="M33.3945 10.5697V9.17462C31.6788 9.17711 29.997 8.69689 28.5413 7.78883C29.8299 9.19878 31.5266 10.1711 33.3945 10.5699M24.3538 1.59586C24.3102 1.34642 24.2767 1.09532 24.2534 0.843172V0H17.6556V26.1855C17.6452 29.2379 15.1665 31.7097 12.1097 31.7097C11.2431 31.7109 10.3884 31.5084 9.61454 31.1183C10.6279 32.4476 12.2282 33.3055 14.0293 33.3055C17.0858 33.3055 19.5647 30.8341 19.5755 27.7814V1.596L24.3538 1.59586ZM13.7933 15.6662V14.1808C13.242 14.1056 12.6862 14.0679 12.1297 14.068C5.43316 14.068 0.00488281 19.4934 0.00488281 26.1855C0.00488281 30.3812 2.13826 34.0789 5.38019 36.2539C3.24199 34.0694 1.92461 31.0793 1.92461 27.7812C1.92461 21.1743 7.21481 15.8021 13.7933 15.6662Z" fill="#00F2EA"/>
</svg>
